{
  "accessors": [
    {
      "bufferView": 0,
      "byteOffset": 0,
      "componentType": 5123,
      "count": 852,
      "max": [
        434.0
      ],
      "min": [
        0.0
      ],
      "name": "buffer-0-group-0-mesh-0-indices",
      "type": "SCALAR"
    },
    {
      "bufferView": 1,
      "byteOffset": 0,
      "componentType": 5126,
      "count": 435,
      "max": [
        1.3300000429153442,
        1.693524956703186,
        0.0
      ],
      "min": [
        -1.3300000429153442,
        -2.866473913192749,
        -1.100000023841858
      ],
      "name": "buffer-0-group-0-mesh-0-position",
      "type": "VEC3"
    },
    {
      "bufferView": 1,
      "byteOffset": 5220,
      "componentType": 5126,
      "count": 435,
      "max": [
        1.0,
        1.0,
        1.0
      ],
      "min": [
        -1.0,
        -1.0,
        -1.0
      ],
      "name": "buffer-0-group-0-mesh-0-normal",
      "type": "VEC3"
    },
    {
      "bufferView": 2,
      "byteOffset": 0,
      "componentType": 5126,
      "count": 435,
      "max": [
        4.459959983825684,
        9.365514755249023
      ],
      "min": [
        -4.459959983825684,
        -5.644043922424316
      ],
      "name": "buffer-0-group-0-mesh-0-texcoord",
      "type": "VEC2"
    },
    {
      "bufferView": 0,
      "byteOffset": 1704,
      "componentType": 5123,
      "count": 138,
      "max": [
        71.0
      ],
      "min": [
        0.0
      ],
      "name": "buffer-0-group-1-mesh-0-indices",
      "type": "SCALAR"
    },
    {
      "bufferView": 1,
      "byteOffset": 10440,
      "componentType": 5126,
      "count": 72,
      "max": [
        1.2390919923782349,
        1.6097769737243652,
        -0.15000000596046448
      ],
      "min": [
        -1.2390919923782349,
        -2.7827250957489014,
        -1.0499999523162842
      ],
      "name": "buffer-0-group-1-mesh-0-position",
      "type": "VEC3"
    },
    {
      "bufferView": 1,
      "byteOffset": 11304,
      "componentType": 5126,
      "count": 72,
      "max": [
        0.9614753127098083,
        0.9275426864624023,
        1.0
      ],
      "min": [
        -0.9614753127098083,
        -0.9275426864624023,
        -1.0
      ],
      "name": "buffer-0-group-1-mesh-0-normal",
      "type": "VEC3"
    },
    {
      "bufferView": 2,
      "byteOffset": 3480,
      "componentType": 5126,
      "count": 72,
      "max": [
        0.6048790216445923,
        1.400521993637085
      ],
      "min": [
        -0.6048790216445923,
        -0.759145975112915
      ],
      "name": "buffer-0-group-1-mesh-0-texcoord",
      "type": "VEC2"
    }
  ],
  "asset": {
    "generator": "Obj2GltfConverter",
    "version": "2.0"
  },
  "bufferViews": [
    {
      "buffer": 0,
      "byteLength": 1980,
      "byteOffset": 0,
      "name": "buffer-0-bufferview-ushort",
      "target": 34963
    },
    {
      "buffer": 0,
      "byteLength": 12168,
      "byteOffset": 1980,
      "byteStride": 12,
      "name": "buffer-0-bufferview-vec3",
      "target": 34962
    },
    {
      "buffer": 0,
      "byteLength": 4056,
      "byteOffset": 14152,
      "byteStride": 8,
      "name": "buffer-0-bufferview-vec2",
      "target": 34962
    }
  ],
  "buffers": [
    {
      "byteLength": 18208,
      "name": "buffer-0",
      "uri": "coffin.bin"
    }
  ],
  "images": [
    {
      "mimeType": "image/jpeg",
      "name": "Metal_Silver-diffuse-image",
      "uri": "D:/3d models/coffin/Metal_Silver.jpg"
    },
    {
      "mimeType": "image/jpeg",
      "name": "Wood_Cherry_Original-diffuse-image",
      "uri": "D:/3d models/coffin/Wood_Cherry_Original.jpg"
    }
  ],
  "materials": [
    {
      "alphaMode": "OPAQUE",
      "doubleSided": true,
      "name": "Metal_Silver",
      "pbrMetallicRoughness": {
        "baseColorFactor": [
          0.8,
          0.8,
          0.8,
          1.0
        ],
        "baseColorTexture": {
          "index": 0,
          "texCoord": 0
        },
        "metallicFactor": 0.0,
        "roughnessFactor": 0.07595822164836669
      }
    },
    {
      "alphaMode": "OPAQUE",
      "doubleSided": true,
      "name": "Wood_Cherry_Original",
      "pbrMetallicRoughness": {
        "baseColorFactor": [
          0.8,
          0.8,
          0.8,
          1.0
        ],
        "baseColorTexture": {
          "index": 1,
          "texCoord": 0
        },
        "metallicFactor": 0.0,
        "roughnessFactor": 0.9907021032245301
      }
    }
  ],
  "meshes": [
    {
      "name": "buffer-0-mesh-0",
      "primitives": [
        {
          "attributes": {
            "POSITION": 1,
            "NORMAL": 2,
            "TEXCOORD_0": 3
          },
          "indices": 0,
          "material": 0,
          "mode": 4
        },
        {
          "attributes": {
            "POSITION": 5,
            "NORMAL": 6,
            "TEXCOORD_0": 7
          },
          "indices": 4,
          "material": 1,
          "mode": 4
        }
      ]
    }
  ],
  "nodes": [
    {
      "mesh": 0,
      "name": "node-0"
    }
  ],
  "samplers": [
    {
      "name": "Metal_Silver-diffuse-sampler",
      "wrapS": 10497,
      "wrapT": 10497
    },
    {
      "name": "Wood_Cherry_Original-diffuse-sampler",
      "wrapS": 10497,
      "wrapT": 10497
    }
  ],
  "scenes": [
    {
      "name": "scene-0",
      "nodes": [
        0
      ]
    }
  ],
  "textures": [
    {
      "name": "Metal_Silver-diffuse-texture",
      "sampler": 0,
      "source": 0
    },
    {
      "name": "Wood_Cherry_Original-diffuse-texture",
      "sampler": 1,
      "source": 1
    }
  ]
}